# xmcd
# Track frame offsets:
# 150
# 14000
# 25175
# 41675
# 50450
# 65825
# 80675
# 93575
# 107150
# 117350
# 131375
# 144800
# 159350
# 173375
# 190400
# 204725
# 216725
# 233300
#
# Disc length: 3401 seconds
# Revision: 0
# Processed by: cddbd v1.5.1PL0 Copyright (c) Steve Scherf et al.
# Submitted via: VisiTrax 2.9.10.228 - For more info visit www.synapsa.com
#
DISCID=fb0d4712
DTITLE=Various Artist - New Country Girls (Live)
DYEAR=1900
DGENRE=Country
TTITLE0=Kathy Matea - Ball And Chain
TTITLE1=Katht Matea - Street Talk
TTITLE2=Kathy Matea - Someone Is Falling In Love
TTITLE3=Kathy Matea/John Thompson - Put Yourself In My Place
TTITLE4=Kathy Matea - Heart Of The Country
TTITLE5=Sweethearts Of The Rodeo - Chains Of Gold
TTITLE6=Sweethearts Of The Rodeo - Hey Doll Baby
TTITLE7=Forester Sisters - Dixie Man
TTITLE8=Forester Sisters - Just In Case
TTITLE9=Forester Sisters - I Fell In Love Again Last Night
TTITLE10=Lorrie Morgan - Stuck On You
TTITLE11=Lorrie Morgan - Please Mr. Please
TTITLE12=Lorrie Morgan - Love Is Fair
TTITLE13=Lorrie Morgan - You're Gettin' To Me Again
TTITLE14=Patty Loveless - It's What You Don't Do
TTITLE15=Patty Loveless - Lonely Days, Lonely Nights
TTITLE16=Tanya Tucker - The Night They Drove Ole Dixie Down
TTITLE17=Tanya Tucker - Texas When I Die
EXTD=Possom PSBCD 0854\nChurch Street Station
EXTT0=
EXTT1=
EXTT2=
EXTT3=
EXTT4=
EXTT5=
EXTT6=
EXTT7=
EXTT8=
EXTT9=
EXTT10=
EXTT11=
EXTT12=
EXTT13=
EXTT14=
EXTT15=
EXTT16=
EXTT17=
PLAYORDER=
